<svg width="382" height="382" viewBox="0 0 382 382" fill="none" xmlns="http://www.w3.org/2000/svg">
<path d="M47.75 119.375V334.25H262.625V119.375H47.75ZM35.8125 95.5H274.562C277.729 95.5 280.765 96.7577 283.004 98.9964C285.242 101.235 286.5 104.271 286.5 107.438V346.188C286.5 349.354 285.242 352.39 283.004 354.629C280.765 356.867 277.729 358.125 274.562 358.125H35.8125C32.6465 358.125 29.6101 356.867 27.3714 354.629C25.1327 352.39 23.875 349.354 23.875 346.188V107.438C23.875 104.271 25.1327 101.235 27.3714 98.9964C29.6101 96.7577 32.6465 95.5 35.8125 95.5ZM358.125 35.8125V298.438C358.125 301.604 356.867 304.64 354.629 306.879C352.39 309.117 349.354 310.375 346.188 310.375H310.375V286.5H334.25V47.75H143.25V71.625H119.375V35.8125C119.375 32.6465 120.633 29.6101 122.871 27.3714C125.11 25.1327 128.146 23.875 131.312 23.875H346.188C349.354 23.875 352.39 25.1327 354.629 27.3714C356.867 29.6101 358.125 32.6465 358.125 35.8125ZM95.5 250.688H214.875V274.562H95.5V250.688ZM95.5 179.062H214.875V202.938H95.5V179.062Z" fill="#343A40"/>
</svg>
