<svg width="20" height="20" viewBox="0 0 20 20" fill="none" xmlns="http://www.w3.org/2000/svg">
<path d="M19.7 4.53001C19.71 4.55001 19.71 4.58001 19.71 4.61001V8.90001C19.71 9.00001 19.65 9.12001 19.56 9.17001L15.95 11.25V15.36C15.95 15.47 15.9 15.57 15.8 15.63L8.27998 19.96C8.25998 19.97 8.23998 20 8.21998 20H7.99998C7.99998 20 7.99998 19.97 7.95998 19.96L0.439983 15.63C0.3939 15.6017 0.355891 15.5619 0.329619 15.5147C0.303346 15.4674 0.289696 15.4141 0.289982 15.36V2.50001C0.289982 2.45001 0.289982 2.42001 0.299982 2.40001C0.299982 2.39001 0.309982 2.38001 0.309982 2.37001C0.309982 2.35001 0.319982 2.34001 0.329982 2.32001C0.329982 2.31001 0.339982 2.30001 0.349982 2.29001L0.379983 2.26001L0.409983 2.23001C0.419983 2.22001 0.429983 2.21001 0.439983 2.21001L4.19998 0.0400098C4.29998 9.76585e-06 4.41998 9.76585e-06 4.49998 0.0400098L8.27998 2.21001C8.28998 2.22001 8.29998 2.22001 8.30998 2.23001L8.33998 2.26001L8.36998 2.29001C8.37998 2.30001 8.38998 2.31001 8.38998 2.32001C8.39998 2.34001 8.40998 2.35001 8.40998 2.37001C8.40998 2.38001 8.41998 2.39001 8.41998 2.40001C8.42998 2.43001 8.42998 2.45001 8.42998 2.50001V10.5L11.57 8.72001V4.61001C11.57 4.58001 11.57 4.55001 11.58 4.53001L11.59 4.50001C11.59 4.50001 11.6 4.47001 11.61 4.45001C11.61 4.44001 11.62 4.43001 11.63 4.42001L11.66 4.39001L11.69 4.36001C11.7 4.35001 11.71 4.34001 11.72 4.34001L15.5 2.17001C15.58 2.11001 15.7 2.11001 15.8 2.17001L19.56 4.34001C19.57 4.34001 19.58 4.35001 19.59 4.36001L19.62 4.39001L19.65 4.42001C19.66 4.43001 19.66 4.44001 19.67 4.45001C19.68 4.47001 19.68 4.50001 19.69 4.50001C19.7 4.50001 19.7 4.50001 19.7 4.53001ZM19.09 8.72001V5.15001L15.95 6.95001V10.5L19.09 8.72001ZM15.33 15.18V11.6L8.42998 15.54V19.15L15.33 15.18ZM0.909983 3.00001V15.18L7.80998 19.15V15.54L4.20998 13.5H4.19998C4.18998 13.5 4.17998 13.5 4.16998 13.47C4.15998 13.47 4.14998 13.46 4.13998 13.45L4.10998 13.42C4.09998 13.41 4.09998 13.4 4.08998 13.39C4.07998 13.37 4.07998 13.36 4.06998 13.35C4.06998 13.33 4.05998 13.32 4.05998 13.31C4.04998 13.3 4.04998 13.28 4.04998 13.27V4.82001L0.909983 3.00001ZM4.35998 0.68001L1.22998 2.50001L4.35998 4.28001L7.49998 2.50001L4.35998 0.68001ZM7.80998 10.88V3.00001L4.66998 4.82001V12.69L7.80998 10.88ZM15.64 2.80001L12.5 4.61001L15.64 6.41001L18.77 4.61001L15.64 2.80001ZM15.33 6.95001L12.19 5.15001V8.72001L15.33 10.5V6.95001ZM8.11998 15L15 11.06L11.88 9.26001L4.99998 13.23L8.11998 15Z" fill="#505051"/>
</svg>
