<svg width="501" height="498" viewBox="0 0 501 498" fill="none" xmlns="http://www.w3.org/2000/svg">
<path d="M366.594 0.312499C358.65 0.202664 350.962 3.12284 345.094 8.47917H345.073C344.714 8.77828 344.367 9.091 344.032 9.41667L177.948 193.083L81.0109 113.583L72.5317 106.292C69.6073 103.861 66.0733 102.277 62.3127 101.711C58.5521 101.146 54.7085 101.62 51.1984 103.083C51.1148 103.118 51.0315 103.152 50.9484 103.187L13.0942 118.812C12.5491 119.04 12.0139 119.29 11.4901 119.563C11.1584 119.748 10.8319 119.942 10.5109 120.146C10.2437 120.293 9.97974 120.446 9.71924 120.604C9.37903 120.83 9.04555 121.067 8.71924 121.312C8.50772 121.475 8.29935 121.642 8.09424 121.812C7.78164 122.054 7.47596 122.304 7.17757 122.563C6.92201 122.786 6.67194 123.015 6.42757 123.25C6.19962 123.488 5.97733 123.731 5.76091 123.979C5.52513 124.237 5.29589 124.501 5.07341 124.771C4.82181 125.069 4.57865 125.375 4.34424 125.687C4.17268 125.92 4.00597 126.156 3.84424 126.396C3.61176 126.736 3.38944 127.084 3.17757 127.437C3.0338 127.678 2.89488 127.921 2.76091 128.167C2.58464 128.509 2.41791 128.857 2.2609 129.208C2.11434 129.517 1.97541 129.83 1.84424 130.146C1.72599 130.449 1.61485 130.754 1.5109 131.063C1.39171 131.386 1.28056 131.713 1.17757 132.042C1.06254 132.421 0.958328 132.803 0.865072 133.187C0.789907 133.464 0.720448 133.742 0.656738 134.021C0.590956 134.394 0.535379 134.769 0.490072 135.146C0.439667 135.492 0.397987 135.839 0.365072 136.188C0.313348 136.762 0.285546 137.339 0.281738 137.917L0.281738 360.125C0.305971 364.216 1.53387 368.208 3.81232 371.606C6.09077 375.003 9.31893 377.654 13.0942 379.229L50.9484 395.146C54.5068 396.627 58.4063 397.091 62.213 396.488C66.0198 395.885 69.5846 394.238 72.5109 391.729L81.0109 384.437L177.948 304.958L344.053 488.604C344.538 489.072 345.038 489.523 345.553 489.958C345.94 490.316 346.336 490.663 346.74 491C347.136 491.301 347.539 491.593 347.948 491.875C348.378 492.192 348.816 492.497 349.261 492.792C349.706 493.067 350.157 493.331 350.615 493.583C351.06 493.844 351.512 494.095 351.969 494.333C352.436 494.56 352.908 494.776 353.386 494.979C353.867 495.2 354.353 495.408 354.844 495.604C355.347 495.791 355.854 495.964 356.365 496.125C356.82 496.274 357.279 496.413 357.74 496.542C358.292 496.696 358.847 496.835 359.407 496.958C359.877 497.066 360.349 497.164 360.823 497.25C361.342 497.333 361.863 497.402 362.386 497.458C362.905 497.527 363.426 497.583 363.948 497.625C364.455 497.658 364.962 497.679 365.469 497.688C366.004 497.701 366.539 497.701 367.073 497.688C367.616 497.667 368.158 497.632 368.698 497.583C369.165 497.545 369.63 497.497 370.094 497.437C370.701 497.351 371.306 497.247 371.907 497.125C372.325 497.05 372.742 496.967 373.157 496.875C373.716 496.738 374.272 496.585 374.823 496.417C375.299 496.289 375.771 496.15 376.24 496C376.731 495.818 377.217 495.623 377.698 495.417C378.332 495.18 378.957 494.923 379.573 494.646L482.573 445.125C486.352 443.302 489.724 440.737 492.49 437.583C493.152 436.836 493.778 436.057 494.365 435.25C494.393 435.201 494.421 435.153 494.448 435.104C495.047 434.264 495.603 433.395 496.115 432.5C496.583 431.687 497.014 430.852 497.407 430C497.47 429.882 497.533 429.764 497.594 429.646C497.901 428.907 498.179 428.156 498.428 427.396C498.535 427.14 498.639 426.883 498.74 426.625C498.976 425.89 499.184 425.146 499.365 424.396C499.431 424.14 499.493 423.883 499.553 423.625C499.694 422.935 499.812 422.24 499.907 421.542C499.968 421.195 500.024 420.848 500.073 420.5C500.134 419.876 500.176 419.251 500.198 418.625C500.241 418.07 500.269 417.515 500.282 416.958V81.125V81.0625C500.284 80.8403 500.284 80.6181 500.282 80.3958C500.265 79.3513 500.195 78.3084 500.073 77.2708C499.436 72.0659 497.499 67.1052 494.44 62.8455C491.382 58.5858 487.301 55.1642 482.573 52.8958L379.573 3.375C375.523 1.4423 371.103 0.404877 366.615 0.333332L366.594 0.312499ZM375.282 143.167V354.896L246.157 249.063L375.282 143.167ZM62.7817 177.625L127.344 249.021L62.7609 320.396L62.7817 177.625Z" fill="#505051"/>
</svg>
