<svg width="501" height="500" viewBox="0 0 501 500" fill="none" xmlns="http://www.w3.org/2000/svg">
<path d="M500.282 250C500.282 388.109 388.391 500 250.282 500C112.172 500 0.281738 388.109 0.281738 250C0.281738 111.891 112.172 0 250.282 0C388.391 0 500.282 111.891 500.282 250ZM359.579 92.4531C334.188 93.3281 312.063 107.328 295.532 126.703C277.219 147.953 265.094 173.156 256.297 198.812C240.672 186.047 228.625 169.359 203.485 162.109C193.559 159.076 183.049 158.469 172.84 160.34C162.63 162.21 153.019 166.504 144.813 172.859C136.296 179.519 130.038 188.641 126.891 198.984C119.407 223.484 134.875 245.359 141.875 253.172L157.25 269.609C160.36 272.797 168.079 281.25 164.25 293.297C160.266 306.484 144.485 314.938 128.204 309.984C120.954 307.781 110.532 302.344 112.891 294.75C113.875 291.578 116.079 289.312 117.282 286.625C118.344 284.328 118.907 282.547 119.235 281.578C122.172 271.891 118.172 259.266 107.75 256.094C98.063 253.078 88.2349 255.453 84.313 267.891C80.0005 282.063 86.7505 307.703 123.063 318.938C165.625 331.953 201.5 308.828 206.625 278.641C209.813 259.766 201.25 245.687 185.625 227.703L172.86 213.531C165.125 205.891 162.532 192.703 170.5 182.609C177.25 174.047 186.86 170.484 202.563 174.719C225.579 180.984 235.766 196.844 252.86 209.703C245.782 232.828 241.125 256.016 236.985 276.844L234.469 292.391C222.266 356.344 212.985 391.516 188.735 411.703C183.844 415.125 176.86 420.328 166.438 420.719C160.891 420.797 159.016 417.078 159.016 415.359C158.844 411.531 162.125 409.734 164.313 408.031C167.485 406.328 172.454 403.297 172.047 393.953C171.719 382.891 162.532 373.281 149.25 373.703C139.329 374.016 124.188 383.375 124.766 400.469C125.329 418.203 141.844 431.469 166.657 430.578C180.016 430.156 209.641 424.719 238.844 389.969C272.86 350.172 282.391 304.516 289.547 271.078L297.532 227.031C301.985 227.531 306.719 227.859 311.922 228.016C354.235 228.906 375.407 206.953 375.719 191C375.969 181.312 369.391 171.797 360.266 172.047C356.345 172.146 352.566 173.541 349.522 176.015C346.477 178.488 344.338 181.901 343.438 185.719C341.485 194.594 356.938 202.656 344.891 210.469C336.344 215.984 320.969 219.906 299.391 216.719L303.313 194.984C311.375 153.813 321.204 103.187 358.735 101.984C361.5 101.812 371.5 102.047 371.672 108.656C371.75 110.844 371.282 111.516 368.672 116.469C366.24 119.696 365.003 123.666 365.172 127.703C365.485 138.203 373.469 145.125 385.11 144.703C400.563 144.219 404.969 129.078 404.797 121.344C404.157 103.109 384.938 91.7188 359.547 92.4688L359.579 92.4531Z" fill="#505051"/>
</svg>
