<svg width="407" height="438" viewBox="0 0 407 438" fill="none" xmlns="http://www.w3.org/2000/svg">
<path d="M406.273 128.658C406.423 121.846 404.704 115.124 401.304 109.22C397.736 103.424 392.688 98.6829 386.679 95.4858C332.575 65.6108 278.445 35.7514 224.288 5.90767C217.759 1.97954 210.269 -0.0646296 202.649 0.00155775C195.03 0.0677451 187.577 2.24171 181.116 6.28267C159.585 18.4545 51.8195 77.6108 19.6945 95.4389C13.5812 98.5097 8.47788 103.271 4.99076 109.156C1.50364 115.042 -0.220694 121.805 0.0226131 128.642V308.939C-0.135238 315.597 1.4827 322.176 4.71011 328.001C8.29858 333.965 13.4545 338.829 19.6164 342.064C51.7414 359.892 159.523 419.048 181.054 431.22C187.511 435.266 194.963 437.445 202.582 437.517C210.202 437.589 217.693 435.55 224.226 431.626C278.288 401.72 332.382 371.861 386.507 342.048C392.67 338.809 397.83 333.946 401.429 327.986C404.656 322.161 406.274 315.581 406.116 308.923V128.658" fill="#505051"/>
<path d="M399.226 330.83C400.043 329.924 400.81 328.975 401.523 327.986C404.75 322.161 406.368 315.581 406.21 308.923V128.658C406.36 121.846 404.642 115.124 401.241 109.22C400.679 108.298 399.851 107.58 399.21 106.72L203.148 218.783L399.226 330.83Z" fill="#505051"/>
<path d="M399.226 330.83L203.148 218.783L7.06946 330.83C10.3851 335.481 14.7055 339.326 19.7101 342.08C51.8351 359.908 159.616 419.064 181.148 431.236C187.605 435.281 195.056 437.461 202.676 437.533C210.296 437.604 217.787 435.565 224.319 431.642C278.382 401.736 332.476 371.876 386.601 342.064C391.6 339.315 395.915 335.475 399.226 330.83Z" fill="#505051"/>
<path d="M259.398 250.345C252.437 262.723 241.58 272.453 228.516 278.021C215.453 283.588 200.915 284.681 187.165 281.129C173.416 277.576 161.227 269.579 152.494 258.38C143.762 247.182 138.976 233.411 138.883 219.21C138.789 205.01 143.392 191.177 151.976 179.864C160.559 168.551 172.642 160.393 186.343 156.659C200.044 152.926 214.595 153.826 227.732 159.221C240.868 164.615 251.852 174.201 258.976 186.486L315.46 154.095C301.123 129.49 279.093 110.282 252.765 99.429C226.437 88.576 197.271 86.6805 169.76 94.0344C142.249 101.388 117.918 117.584 100.517 140.126C83.1155 162.668 73.6084 190.306 73.4601 218.783C73.4319 241.364 79.3605 263.553 90.6476 283.111C102.077 302.865 118.507 319.262 138.283 330.652C158.06 342.043 180.488 348.025 203.31 347.998C226.133 347.971 248.546 341.936 268.296 330.499C288.046 319.062 304.436 302.626 315.819 282.845L259.398 250.345Z" fill="white"/>
<path d="M385.491 207.392V188.048H369.757V172.33H350.398V188.048H326.835V172.33H307.476V188.048H291.726V207.392H307.444V231.033H291.726V250.361H307.444V266.08H326.804V250.361H350.382V266.08H369.741V250.361H385.46V231.033H369.835V207.392H385.491ZM350.398 231.033H326.835V207.392H350.398V231.033Z" fill="white"/>
</svg>
