<svg width="20" height="20" viewBox="0 0 20 20" fill="none" xmlns="http://www.w3.org/2000/svg">
<g clip-path="url(#clip0_47_13)">
<path fill-rule="evenodd" clip-rule="evenodd" d="M9.99984 12V20C7.5078 19.9985 5.10612 19.0666 3.2653 17.3868C1.42449 15.707 0.277196 13.4004 0.0481925 10.919C-0.180811 8.43746 0.524977 5.95988 2.02729 3.97158C3.52959 1.98328 5.72016 0.627563 8.16984 0.170013L9.99984 2.00001H14.9998C16.3242 2.00001 17.5944 2.52542 18.5318 3.46094C19.4692 4.39646 19.9972 5.66566 19.9998 6.99001V16.01C19.9972 17.0691 19.5746 18.084 18.8247 18.832C18.0749 19.58 17.059 20 15.9998 20V18C16.5303 18 17.039 17.7893 17.414 17.4142C17.7891 17.0392 17.9998 16.5304 17.9998 16C17.9998 15.4696 17.7891 14.9609 17.414 14.5858C17.039 14.2107 16.5303 14 15.9998 14H11.9998L9.99984 12ZM15.4998 9.00001C15.8977 9.00001 16.2792 8.84198 16.5605 8.56067C16.8418 8.27937 16.9998 7.89784 16.9998 7.50001C16.9998 7.10219 16.8418 6.72066 16.5605 6.43935C16.2792 6.15805 15.8977 6.00001 15.4998 6.00001C15.102 6.00001 14.7205 6.15805 14.4392 6.43935C14.1579 6.72066 13.9998 7.10219 13.9998 7.50001C13.9998 7.89784 14.1579 8.27937 14.4392 8.56067C14.7205 8.84198 15.102 9.00001 15.4998 9.00001Z" fill="black"/>
</g>
<defs>
<clipPath id="clip0_47_13">
<rect width="20" height="20" fill="white"/>
</clipPath>
</defs>
</svg>
