<svg width="407" height="438" viewBox="0 0 407 438" fill="none" xmlns="http://www.w3.org/2000/svg">
<path fill-rule="evenodd" clip-rule="evenodd" d="M406.273 128.658C406.423 121.846 404.704 115.124 401.304 109.22C397.736 103.424 392.688 98.6829 386.679 95.4858C332.575 65.6108 278.445 35.7514 224.288 5.90767C217.759 1.97954 210.269 -0.064628 202.649 0.00155934C195.03 0.0677467 187.577 2.24171 181.116 6.28267C168.089 13.6473 123.491 38.2127 83.1805 60.4168L83.1802 60.417C56.8679 74.9104 32.382 88.3978 19.6945 95.4389C13.5812 98.5097 8.4779 103.271 4.99078 109.156C1.50366 115.042 -0.220668 121.805 0.0226392 128.642V308.939C-0.135212 315.597 1.48272 322.176 4.71014 328.001C8.2986 333.965 13.4545 338.829 19.6164 342.064C32.3426 349.126 56.9418 362.675 83.3484 377.219L83.3596 377.225C123.609 399.392 168.053 423.871 181.054 431.22C187.511 435.266 194.963 437.445 202.582 437.517C210.202 437.589 217.693 435.55 224.226 431.626C278.288 401.72 332.382 371.861 386.507 342.048C392.67 338.809 397.83 333.946 401.429 327.986C404.656 322.161 406.274 315.581 406.116 308.923V128.658H406.273ZM385.491 207.392V188.048H369.757V172.33H350.398V188.048H326.835V172.33H307.476V188.048H291.726V207.392H307.444V231.033H291.726V250.361H307.444V266.08H326.804V250.361H350.382V266.08H369.741V250.361H385.46V231.033H369.835V207.392H385.491ZM350.398 231.033H326.835V207.392H350.398V231.033ZM228.516 278.021C241.58 272.453 252.437 262.723 259.398 250.345L315.819 282.845C304.436 302.626 288.046 319.062 268.296 330.499C248.546 341.936 226.133 347.971 203.31 347.998C180.488 348.025 158.06 342.043 138.283 330.652C118.507 319.262 102.077 302.865 90.6476 283.111C79.3605 263.553 73.4319 241.364 73.4601 218.783C73.6084 190.306 83.1155 162.668 100.517 140.126C117.918 117.584 142.249 101.388 169.76 94.0344C197.271 86.6805 226.437 88.576 252.765 99.429C279.093 110.282 301.123 129.49 315.46 154.095L258.976 186.486C251.852 174.201 240.868 164.615 227.732 159.221C214.595 153.826 200.044 152.926 186.343 156.659C172.642 160.393 160.559 168.551 151.976 179.864C143.392 191.177 138.789 205.01 138.883 219.21C138.976 233.411 143.762 247.182 152.494 258.38C161.227 269.579 173.416 277.576 187.165 281.129C200.915 284.681 215.453 283.588 228.516 278.021Z" fill="#505051"/>
</svg>
